<svg xmlns="http://www.w3.org/2000/svg" xmlns:xlink="http://www.w3.org/1999/xlink" width="656" zoomAndPan="magnify" viewBox="0 0 492 304.499991" height="406" preserveAspectRatio="xMidYMid meet" version="1.0"><defs><g/><clipPath id="386b11c7f1"><path d="M 158.128906 111 L 334.839844 111 L 334.839844 157.902344 L 158.128906 157.902344 Z M 158.128906 111 " clip-rule="nonzero"/></clipPath><clipPath id="57ee4bc179"><path d="M 238 141 L 255 141 L 255 157.902344 L 238 157.902344 Z M 238 141 " clip-rule="nonzero"/></clipPath><clipPath id="b9818c03fe"><path d="M 201 75.535156 L 320 75.535156 L 320 144 L 201 144 Z M 201 75.535156 " clip-rule="nonzero"/></clipPath></defs><g clip-path="url(#386b11c7f1)"><path fill="#000000" d="M 205.335938 155.011719 L 166.488281 155.011719 L 177.730469 142.992188 L 198.316406 120.980469 L 217.734375 141.746094 L 205.324219 155.011719 Z M 287.628906 155.011719 L 275.21875 141.746094 L 294.636719 120.980469 L 315.226562 142.992188 L 326.464844 155.011719 L 287.621094 155.011719 Z M 246.488281 115.394531 L 286.136719 157.78125 L 334.839844 157.78125 L 334.839844 155.011719 L 329.5625 155.011719 L 294.140625 117.136719 L 259.679688 125.125 L 246.476562 111.019531 L 234.132812 124.21875 L 220.398438 126.027344 L 198.816406 117.148438 L 163.390625 155.019531 L 158.117188 155.019531 L 158.117188 157.792969 L 206.820312 157.792969 C 220.03125 143.664062 233.253906 129.535156 246.464844 115.402344 Z M 246.488281 115.394531 " fill-opacity="1" fill-rule="evenodd"/></g><g clip-path="url(#57ee4bc179)"><path fill="#96989a" d="M 247.972656 141.335938 L 247.972656 147.863281 L 254.503906 147.863281 C 253.886719 144.574219 251.273438 141.953125 247.972656 141.335938 Z M 238.464844 147.863281 L 244.992188 147.863281 L 244.992188 141.335938 C 241.703125 141.953125 239.082031 144.5625 238.464844 147.863281 Z M 244.992188 157.511719 L 244.992188 150.851562 L 238.324219 150.851562 L 238.324219 157.511719 Z M 254.644531 150.851562 L 247.972656 150.851562 L 247.972656 157.511719 L 254.644531 157.511719 Z M 254.644531 150.851562 " fill-opacity="1" fill-rule="evenodd"/></g><path fill="#f27136" d="M 234.140625 124.21875 L 198.828125 117.136719 L 219.792969 139.558594 Z M 234.140625 124.21875 " fill-opacity="1" fill-rule="evenodd"/><path fill="#f27136" d="M 258.824219 124.21875 L 294.140625 117.136719 L 273.171875 139.558594 Z M 258.824219 124.21875 " fill-opacity="1" fill-rule="evenodd"/><path fill="#96989a" d="M 199.128906 138.929688 L 199.128906 142.449219 L 202.648438 142.449219 C 202.3125 140.675781 200.90625 139.265625 199.128906 138.929688 Z M 194.007812 142.449219 L 197.527344 142.449219 L 197.527344 138.929688 C 195.75 139.265625 194.34375 140.675781 194.007812 142.449219 Z M 197.527344 147.648438 L 197.527344 144.054688 L 193.929688 144.054688 L 193.929688 147.648438 Z M 202.726562 144.054688 L 199.128906 144.054688 L 199.128906 147.648438 L 202.726562 147.648438 Z M 202.726562 144.054688 " fill-opacity="1" fill-rule="evenodd"/><path fill="#96989a" d="M 295.4375 138.929688 L 295.4375 142.449219 L 298.957031 142.449219 C 298.625 140.675781 297.214844 139.265625 295.4375 138.929688 Z M 290.316406 142.449219 L 293.835938 142.449219 L 293.835938 138.929688 C 292.058594 139.265625 290.652344 140.675781 290.316406 142.449219 Z M 293.835938 147.648438 L 293.835938 144.054688 L 290.242188 144.054688 L 290.242188 147.648438 Z M 299.035156 144.054688 L 295.4375 144.054688 L 295.4375 147.648438 L 299.035156 147.648438 Z M 299.035156 144.054688 " fill-opacity="1" fill-rule="evenodd"/><path fill="#000000" d="M 182.527344 128.027344 C 185.789062 118.5 191.214844 109.773438 198.449219 102.542969 C 210.964844 90.023438 227.796875 83.050781 245.515625 83.050781 C 250.496094 83.050781 255.421875 83.605469 260.199219 84.675781 C 254.015625 82.867188 247.550781 81.949219 240.988281 81.949219 C 207.738281 81.949219 179.972656 105.671875 173.820312 137.175781 L 182.625 127.769531 L 182.539062 128.027344 Z M 182.527344 128.027344 " fill-opacity="1" fill-rule="evenodd"/><g clip-path="url(#b9818c03fe)"><path fill="#f27136" d="M 313.046875 142.472656 C 313.082031 142.722656 313.101562 142.96875 313.125 143.230469 C 313.101562 142.980469 313.070312 142.722656 313.046875 142.472656 Z M 312.960938 141.714844 C 312.996094 141.953125 313.015625 142.191406 313.046875 142.429688 C 313.027344 142.191406 312.996094 141.953125 312.960938 141.714844 Z M 312.863281 140.957031 C 312.898438 141.195312 312.929688 141.433594 312.949219 141.671875 C 312.917969 141.433594 312.898438 141.195312 312.863281 140.957031 Z M 312.757812 140.1875 C 312.789062 140.414062 312.820312 140.640625 312.851562 140.871094 L 312.789062 140.382812 L 312.765625 140.1875 Z M 312.519531 138.617188 C 312.605469 139.117188 312.679688 139.625 312.757812 140.121094 C 312.679688 139.625 312.605469 139.117188 312.519531 138.617188 Z M 312.257812 137.113281 C 312.300781 137.363281 312.34375 137.609375 312.386719 137.847656 C 312.34375 137.601562 312.300781 137.351562 312.257812 137.113281 Z M 312.105469 136.34375 C 312.148438 136.59375 312.203125 136.832031 312.246094 137.082031 C 312.203125 136.832031 312.148438 136.59375 312.105469 136.34375 Z M 311.792969 134.851562 C 311.847656 135.085938 311.902344 135.335938 311.945312 135.574219 C 311.890625 135.335938 311.835938 135.085938 311.792969 134.851562 Z M 311.617188 134.101562 C 311.671875 134.339844 311.726562 134.578125 311.78125 134.816406 C 311.726562 134.578125 311.671875 134.339844 311.617188 134.101562 Z M 311.066406 131.882812 C 311.195312 132.359375 311.316406 132.847656 311.433594 133.324219 C 311.316406 132.835938 311.195312 132.359375 311.066406 131.882812 Z M 310.859375 131.148438 C 310.925781 131.375 310.992188 131.601562 311.042969 131.828125 C 310.980469 131.601562 310.925781 131.375 310.859375 131.148438 Z M 310.65625 130.410156 C 310.71875 130.628906 310.785156 130.84375 310.839844 131.058594 C 310.773438 130.84375 310.71875 130.628906 310.65625 130.410156 Z M 310.4375 129.675781 C 310.503906 129.902344 310.566406 130.128906 310.632812 130.34375 C 310.566406 130.117188 310.503906 129.890625 310.4375 129.675781 Z M 310.199219 128.894531 C 310.277344 129.132812 310.351562 129.371094 310.417969 129.609375 C 310.339844 129.371094 310.277344 129.132812 310.199219 128.894531 Z M 309.960938 128.160156 C 310.039062 128.398438 310.113281 128.636719 310.1875 128.871094 C 310.113281 128.636719 310.039062 128.398438 309.960938 128.160156 Z M 241.667969 78.589844 C 260.773438 78.589844 278.933594 86.105469 292.4375 99.617188 C 300.507812 107.683594 306.484375 117.460938 309.960938 128.160156 C 309.832031 127.746094 309.691406 127.335938 309.550781 126.925781 L 319.382812 137.425781 C 313.578125 102.378906 283.125 75.644531 246.421875 75.644531 C 229.886719 75.644531 214.042969 81.113281 201.144531 91.109375 C 212.992188 82.988281 227.058594 78.589844 241.679688 78.589844 Z M 241.667969 78.589844 " fill-opacity="1" fill-rule="evenodd"/></g><path fill="#ffcc29" d="M 198.828125 114.148438 L 234.140625 121.21875 L 246.488281 108.019531 L 258.835938 121.21875 L 294.148438 114.148438 L 303.90625 124.585938 C 294.3125 102.109375 272.015625 86.355469 246.023438 86.355469 C 219.359375 86.355469 196.574219 102.941406 187.421875 126.351562 L 198.835938 114.148438 Z M 198.828125 114.148438 " fill-opacity="1" fill-rule="evenodd"/><g fill="#000000" fill-opacity="1"><g transform="translate(155.707709, 204.454605)"><g><path d="M 17.085938 -5.710938 C 17.511719 -5.710938 17.679688 -6.050781 17.808594 -6.21875 L 22.625 -15.765625 L 22.625 -0.765625 C 22.625 -0.253906 23.050781 0 23.390625 0 L 27.351562 0 C 27.691406 0 28.121094 -0.253906 28.121094 -0.765625 L 28.121094 -26.074219 C 28.121094 -26.585938 27.691406 -26.839844 27.351562 -26.839844 L 23.347656 -26.839844 C 23.007812 -26.839844 22.625 -26.542969 22.410156 -26.074219 L 15.378906 -12.101562 L 8.351562 -26.074219 C 8.136719 -26.542969 7.753906 -26.839844 7.414062 -26.839844 L 3.410156 -26.839844 C 3.066406 -26.839844 2.640625 -26.585938 2.640625 -26.074219 L 2.640625 -0.765625 C 2.640625 -0.253906 3.066406 0 3.410156 0 L 7.371094 0 C 7.710938 0 8.136719 -0.253906 8.136719 -0.765625 L 8.136719 -15.765625 L 12.953125 -6.21875 C 13.078125 -6.050781 13.25 -5.710938 13.675781 -5.710938 Z M 17.085938 -5.710938 "/></g></g></g><g fill="#000000" fill-opacity="1"><g transform="translate(192.599508, 204.454605)"><g><path d="M 12.3125 -27.183594 C 2.257812 -27.183594 2.214844 -18.703125 2.214844 -18.703125 L 2.214844 -8.136719 C 2.214844 -8.136719 2.257812 0.339844 12.3125 0.339844 C 22.367188 0.339844 22.410156 -8.136719 22.410156 -8.136719 L 22.410156 -18.703125 C 22.410156 -18.703125 22.367188 -27.183594 12.3125 -27.183594 Z M 12.3125 -4.6875 C 10.949219 -4.6875 7.710938 -5.113281 7.710938 -9.332031 L 7.710938 -17.511719 C 7.710938 -21.730469 10.949219 -22.15625 12.3125 -22.15625 C 13.675781 -22.15625 16.914062 -21.730469 16.914062 -17.511719 L 16.914062 -9.332031 C 16.914062 -5.113281 13.675781 -4.6875 12.3125 -4.6875 Z M 12.3125 -4.6875 "/></g></g></g><g fill="#000000" fill-opacity="1"><g transform="translate(223.357185, 204.454605)"><g><path d="M 2.429688 -9.375 C 2.429688 -6.433594 3.707031 0.339844 12.824219 0.339844 C 14.871094 0.339844 17.511719 0 19.46875 -0.683594 C 19.8125 -0.808594 19.898438 -1.148438 19.898438 -1.277344 L 19.300781 -4.984375 C 19.171875 -5.324219 18.917969 -5.410156 18.703125 -5.410156 C 16.957031 -4.941406 15.167969 -4.6875 13.71875 -4.6875 C 11.078125 -4.6875 7.882812 -5.835938 7.882812 -9.882812 L 7.882812 -16.957031 C 7.882812 -21.003906 11.078125 -22.15625 13.71875 -22.15625 C 15.167969 -22.15625 16.957031 -21.898438 18.703125 -21.429688 C 18.917969 -21.429688 19.171875 -21.515625 19.300781 -21.855469 L 19.898438 -25.5625 C 19.898438 -25.691406 19.8125 -26.03125 19.46875 -26.160156 C 17.511719 -26.839844 14.871094 -27.183594 12.824219 -27.183594 C 3.707031 -27.183594 2.429688 -20.40625 2.429688 -17.46875 Z M 2.429688 -9.375 "/></g></g></g><g fill="#000000" fill-opacity="1"><g transform="translate(251.81457, 204.454605)"><g><path d="M 16.785156 -0.511719 C 17 -0.0859375 17.382812 0 17.597656 0 L 21.855469 0 C 22.195312 0 22.625 -0.253906 22.625 -0.765625 L 14.527344 -16.148438 L 21.175781 -26.074219 C 21.175781 -26.585938 20.75 -26.839844 20.40625 -26.839844 L 15.804688 -26.839844 C 15.59375 -26.839844 15.253906 -26.757812 14.996094 -26.328125 L 8.136719 -15.933594 L 8.136719 -26.074219 C 8.136719 -26.585938 7.710938 -26.839844 7.371094 -26.839844 L 3.410156 -26.839844 C 3.066406 -26.839844 2.640625 -26.585938 2.640625 -26.074219 L 2.640625 -0.765625 C 2.640625 -0.253906 3.066406 0 3.410156 0 L 7.371094 0 C 7.710938 0 8.136719 -0.253906 8.136719 -0.765625 L 8.136719 -6.605469 L 11.246094 -11.164062 Z M 16.785156 -0.511719 "/></g></g></g><g fill="#000000" fill-opacity="1"><g transform="translate(281.933271, 204.454605)"><g><path d="M 11.164062 -21.8125 C 12.527344 -21.8125 15.804688 -21.472656 15.804688 -17.253906 L 15.804688 -15.890625 C 15.804688 -11.671875 12.527344 -11.246094 11.164062 -11.246094 L 8.136719 -11.246094 L 8.136719 -21.8125 Z M 3.410156 -26.839844 C 3.066406 -26.839844 2.640625 -26.585938 2.640625 -26.074219 L 2.640625 -0.765625 C 2.640625 -0.253906 3.066406 0 3.410156 0 L 7.371094 0 C 7.710938 0 8.136719 -0.253906 8.136719 -0.765625 L 8.136719 -6.21875 L 11.164062 -6.21875 C 21.175781 -6.21875 21.300781 -14.785156 21.300781 -14.785156 L 21.300781 -18.320312 C 21.300781 -18.320312 21.175781 -26.839844 11.164062 -26.839844 Z M 3.410156 -26.839844 "/></g></g></g><g fill="#000000" fill-opacity="1"><g transform="translate(311.157415, 204.454605)"><g><path d="M 9.714844 -26.839844 C 9.457031 -26.839844 9.117188 -26.671875 8.988281 -26.328125 L 1.148438 -0.765625 C 1.148438 -0.253906 1.578125 0 1.917969 0 L 5.792969 0 C 6.136719 0 6.476562 -0.253906 6.644531 -0.765625 L 7.625 -4.089844 L 17.46875 -4.089844 L 18.492188 -0.765625 C 18.660156 -0.253906 19 0 19.34375 0 L 23.21875 0 C 23.5625 0 23.988281 -0.253906 23.988281 -0.765625 L 16.148438 -26.328125 C 16.019531 -26.671875 15.679688 -26.839844 15.421875 -26.839844 Z M 12.570312 -20.195312 L 15.933594 -9.117188 L 9.160156 -9.117188 Z M 12.570312 -20.195312 "/></g></g></g><g fill="#f27136" fill-opacity="1"><g transform="translate(231.79868, 224.902941)"><g><path d="M 10.75 -10.6875 C 10.414062 -9.820312 10.09375 -8.664062 9.78125 -7.21875 L 9.453125 -7.21875 C 9.515625 -7.601562 9.546875 -7.945312 9.546875 -8.25 C 9.546875 -8.738281 9.460938 -9.140625 9.296875 -9.453125 C 9.117188 -9.816406 8.847656 -10.101562 8.484375 -10.3125 C 8.128906 -10.519531 7.742188 -10.625 7.328125 -10.625 C 6.484375 -10.625 5.671875 -10.226562 4.890625 -9.4375 C 4.117188 -8.65625 3.488281 -7.664062 3 -6.46875 C 2.519531 -5.28125 2.28125 -4.128906 2.28125 -3.015625 C 2.28125 -2.046875 2.46875 -1.3125 2.84375 -0.8125 C 3.226562 -0.3125 3.757812 -0.0625 4.4375 -0.0625 C 4.882812 -0.0625 5.351562 -0.160156 5.84375 -0.359375 C 6.332031 -0.566406 6.757812 -0.859375 7.125 -1.234375 C 7.382812 -1.492188 7.609375 -1.796875 7.796875 -2.140625 C 7.992188 -2.492188 8.222656 -2.988281 8.484375 -3.625 L 8.8125 -3.625 C 8.34375 -1.882812 8.046875 -0.675781 7.921875 0 L 7.59375 0 C 7.625 -0.207031 7.640625 -0.378906 7.640625 -0.515625 C 7.640625 -0.773438 7.578125 -0.90625 7.453125 -0.90625 C 7.378906 -0.90625 7.273438 -0.859375 7.140625 -0.765625 C 6.617188 -0.421875 6.160156 -0.171875 5.765625 -0.015625 C 5.367188 0.140625 4.875 0.21875 4.28125 0.21875 C 3.164062 0.21875 2.300781 -0.0820312 1.6875 -0.6875 C 1.070312 -1.289062 0.765625 -2.171875 0.765625 -3.328125 C 0.765625 -4.492188 1.050781 -5.664062 1.625 -6.84375 C 2.207031 -8.019531 3.003906 -8.988281 4.015625 -9.75 C 5.035156 -10.507812 6.144531 -10.890625 7.34375 -10.890625 C 7.925781 -10.890625 8.367188 -10.804688 8.671875 -10.640625 C 8.984375 -10.484375 9.289062 -10.242188 9.59375 -9.921875 C 9.664062 -9.828125 9.742188 -9.78125 9.828125 -9.78125 C 9.921875 -9.78125 10.015625 -9.851562 10.109375 -10 C 10.203125 -10.144531 10.3125 -10.375 10.4375 -10.6875 Z M 10.75 -10.6875 "/></g></g></g><g fill="#f27136" fill-opacity="1"><g transform="translate(242.657362, 224.902941)"><g><path d="M 2.84375 -10.3125 C 2.84375 -10.613281 2.953125 -10.878906 3.171875 -11.109375 C 3.398438 -11.347656 3.660156 -11.46875 3.953125 -11.46875 C 4.179688 -11.46875 4.363281 -11.390625 4.5 -11.234375 C 4.644531 -11.085938 4.71875 -10.90625 4.71875 -10.6875 C 4.71875 -10.382812 4.601562 -10.117188 4.375 -9.890625 C 4.144531 -9.660156 3.882812 -9.546875 3.59375 -9.546875 C 3.375 -9.546875 3.191406 -9.617188 3.046875 -9.765625 C 2.910156 -9.910156 2.84375 -10.09375 2.84375 -10.3125 Z M 2.390625 -6.46875 C 2.460938 -6.71875 2.5 -6.90625 2.5 -7.03125 C 2.5 -7.28125 2.390625 -7.40625 2.171875 -7.40625 C 1.941406 -7.40625 1.734375 -7.285156 1.546875 -7.046875 C 1.367188 -6.804688 1.179688 -6.414062 0.984375 -5.875 L 0.765625 -5.3125 L 0.484375 -5.3125 L 0.875 -6.421875 C 1.070312 -6.992188 1.335938 -7.394531 1.671875 -7.625 C 2.015625 -7.851562 2.375 -7.96875 2.75 -7.96875 C 3.414062 -7.96875 3.75 -7.648438 3.75 -7.015625 C 3.75 -6.679688 3.664062 -6.296875 3.5 -5.859375 L 1.890625 -1.28125 C 1.804688 -1.039062 1.765625 -0.851562 1.765625 -0.71875 C 1.765625 -0.46875 1.882812 -0.34375 2.125 -0.34375 C 2.332031 -0.34375 2.523438 -0.457031 2.703125 -0.6875 C 2.890625 -0.925781 3.09375 -1.328125 3.3125 -1.890625 L 3.515625 -2.4375 L 3.796875 -2.4375 L 3.40625 -1.34375 C 3.207031 -0.789062 2.941406 -0.390625 2.609375 -0.140625 C 2.285156 0.0976562 1.929688 0.21875 1.546875 0.21875 C 0.847656 0.21875 0.5 -0.0859375 0.5 -0.703125 C 0.5 -0.992188 0.585938 -1.394531 0.765625 -1.90625 Z M 2.390625 -6.46875 "/></g></g></g><g fill="#f27136" fill-opacity="1"><g transform="translate(247.966338, 224.902941)"><g><path d="M 1.828125 -1.28125 C 1.796875 -1.164062 1.78125 -1.054688 1.78125 -0.953125 C 1.78125 -0.753906 1.835938 -0.601562 1.953125 -0.5 C 2.078125 -0.394531 2.238281 -0.34375 2.4375 -0.34375 C 2.6875 -0.34375 2.914062 -0.453125 3.125 -0.671875 C 3.34375 -0.890625 3.5625 -1.285156 3.78125 -1.859375 L 3.984375 -2.4375 L 4.265625 -2.4375 L 3.953125 -1.5 C 3.742188 -0.875 3.46875 -0.429688 3.125 -0.171875 C 2.789062 0.0859375 2.378906 0.21875 1.890625 0.21875 C 1.429688 0.21875 1.09375 0.109375 0.875 -0.109375 C 0.65625 -0.335938 0.546875 -0.648438 0.546875 -1.046875 C 0.546875 -1.304688 0.585938 -1.59375 0.671875 -1.90625 L 2.28125 -7.453125 L 0.921875 -7.453125 L 1 -7.765625 L 2.359375 -7.765625 L 3.015625 -10.046875 C 3.554688 -10.066406 4.007812 -10.140625 4.375 -10.265625 L 3.671875 -7.765625 L 5.65625 -7.765625 L 5.609375 -7.453125 L 3.578125 -7.453125 Z M 1.828125 -1.28125 "/></g></g></g><g fill="#f27136" fill-opacity="1"><g transform="translate(253.788059, 224.902941)"><g><path d="M 6.125 -7.96875 C 6.644531 -7.96875 6.90625 -7.5625 6.90625 -6.75 C 6.90625 -5.789062 6.609375 -4.679688 6.015625 -3.421875 C 5.421875 -2.171875 4.726562 -1.046875 3.9375 -0.046875 C 3 1.117188 2.007812 1.953125 0.96875 2.453125 C 0.4375 2.710938 0 2.84375 -0.34375 2.84375 C -0.5625 2.84375 -0.742188 2.785156 -0.890625 2.671875 C -1.035156 2.554688 -1.109375 2.40625 -1.109375 2.21875 C -1.109375 2.007812 -1.023438 1.84375 -0.859375 1.71875 C -0.703125 1.601562 -0.507812 1.546875 -0.28125 1.546875 C -0.0703125 1.546875 0.128906 1.597656 0.328125 1.703125 C 0.523438 1.804688 0.738281 1.945312 0.96875 2.125 C 1.75 1.707031 2.503906 1.101562 3.234375 0.3125 L 2.109375 -6.4375 C 2.054688 -6.75 1.992188 -6.96875 1.921875 -7.09375 C 1.859375 -7.21875 1.757812 -7.28125 1.625 -7.28125 C 1.5 -7.28125 1.367188 -7.179688 1.234375 -6.984375 C 1.097656 -6.785156 0.929688 -6.421875 0.734375 -5.890625 L 0.546875 -5.328125 L 0.25 -5.328125 L 0.640625 -6.4375 C 0.984375 -7.457031 1.5625 -7.96875 2.375 -7.96875 C 2.695312 -7.96875 2.9375 -7.863281 3.09375 -7.65625 C 3.257812 -7.457031 3.378906 -7.097656 3.453125 -6.578125 L 4.21875 -0.90625 C 4.78125 -1.664062 5.257812 -2.46875 5.65625 -3.3125 C 6.0625 -4.15625 6.34375 -4.988281 6.5 -5.8125 C 6.195312 -5.96875 5.929688 -6.164062 5.703125 -6.40625 C 5.472656 -6.644531 5.359375 -6.910156 5.359375 -7.203125 C 5.359375 -7.429688 5.429688 -7.613281 5.578125 -7.75 C 5.722656 -7.894531 5.90625 -7.96875 6.125 -7.96875 Z M 6.125 -7.96875 "/></g></g></g></svg>